# xmcd
#
# Track frame offsets: 
#        150
#        14550
#        29720
#        42602
#        59320
#        73187
#        87662
#        103937
#        136937
#        158360
#        171977
#        190680
#        204732
#        225132
#
# Disc length: 3167 seconds
#
# Revision: 0
# Processed by: cddbd v1.5.1PL0 Copyright (c) Steve Scherf et al.
# Submitted via: ExactAudioCopy v0.95b2
#
DISCID=c50c5d0e
DTITLE=Fist - Back With A Vengeance - The Anthology [CD1]
DYEAR=2002
DGENRE=Heavy Metal
TTITLE0=S.S. Giro (Original Axe Version)
TTITLE1=Name, Rank And Serial Number
TTITLE2=You´ll Never Get Me Up (In One Of Those)
TTITLE3=Throwing In The Towel
TTITLE4=Turn The Hell On
TTITLE5=S.S. Giro (LP Version)
TTITLE6=Too Hot
TTITLE7=Lost And Found
TTITLE8=The Feeling´s Right
TTITLE9=Dog Soldier
TTITLE10=All I Can Do
TTITLE11=Devil Rise
TTITLE12=Going Wild Tonight
TTITLE13=The Wanderer
EXTD=
EXTT0=
EXTT1=
EXTT2=
EXTT3=
EXTT4=
EXTT5=
EXTT6=
EXTT7=
EXTT8=
EXTT9=
EXTT10=
EXTT11=
EXTT12=
EXTT13=
PLAYORDER=
